<svg xmlns="http://www.w3.org/2000/svg" width="814" height="557" viewBox="0 0 814 557" fill="none">
<path d="M109.33 470.4H95.2401C82.1901 470.4 71.5801 459.78 71.5801 446.74V432.65H85.6701C98.7201 432.65 109.33 443.27 109.33 456.31V470.4Z" stroke="#F2D785" stroke-miterlimit="10"/>
<path d="M39 394.89H24.91C11.86 394.89 1.25 405.51 1.25 418.55V432.64H15.34C28.39 432.64 39 422.02 39 408.98V394.89Z" stroke="#F2D785" stroke-miterlimit="10"/>
<path d="M249.99 470.4H235.9C222.85 470.4 212.24 459.78 212.24 446.74V432.65H226.33C239.38 432.65 249.99 443.27 249.99 456.31V470.4Z" stroke="#F2D785" stroke-miterlimit="10"/>
<path d="M179.66 394.89H165.57C152.52 394.89 141.91 405.51 141.91 418.55V432.64H156C169.05 432.64 179.66 422.02 179.66 408.98V394.89Z" stroke="#F2D785" stroke-miterlimit="10"/>
<path d="M390.66 470.4H376.57C363.52 470.4 352.91 459.78 352.91 446.74V432.65H367C380.05 432.65 390.66 443.27 390.66 456.31V470.4Z" stroke="#F2D785" stroke-miterlimit="10"/>
<path d="M320.32 394.89H306.23C293.18 394.89 282.57 405.51 282.57 418.55V432.64H296.66C309.71 432.64 320.32 422.02 320.32 408.98V394.89Z" stroke="#F2D785" stroke-miterlimit="10"/>
<path d="M531.32 470.4H517.23C504.18 470.4 493.57 459.78 493.57 446.74V432.65H507.66C520.71 432.65 531.32 443.27 531.32 456.31V470.4Z" stroke="#F2D785" stroke-miterlimit="10"/>
<path d="M460.99 394.89H446.9C433.85 394.89 423.24 405.51 423.24 418.55V432.64H437.33C450.38 432.64 460.99 422.02 460.99 408.98V394.89Z" stroke="#F2D785" stroke-miterlimit="10"/>
<path d="M671.98 470.4H657.891C644.841 470.4 634.23 459.78 634.23 446.74V432.65H648.32C661.37 432.65 671.98 443.27 671.98 456.31V470.4Z" stroke="#F2D785" stroke-miterlimit="10"/>
<path d="M601.65 394.89H587.56C574.51 394.89 563.9 405.51 563.9 418.55V432.64H577.99C591.04 432.64 601.65 422.02 601.65 408.98V394.89Z" stroke="#F2D785" stroke-miterlimit="10"/>
<path d="M812.64 470.4H798.55C785.5 470.4 774.89 459.78 774.89 446.74V432.65H788.98C802.03 432.65 812.64 443.27 812.64 456.31V470.4Z" stroke="#F2D785" stroke-miterlimit="10"/>
<path d="M742.31 384.71H728.22C715.17 384.71 704.56 395.33 704.56 408.37V422.46H718.65C731.7 422.46 742.31 411.84 742.31 398.8V384.71Z" stroke="#F2D785" stroke-miterlimit="10"/>
<path d="M109.33 556.09H95.2401C82.1901 556.09 71.5801 545.47 71.5801 532.43V518.34H85.6701C98.7201 518.34 109.33 528.96 109.33 542V556.09Z" stroke="#F2D785" stroke-miterlimit="10"/>
<path d="M39 480.58H24.91C11.86 480.58 1.25 491.2 1.25 504.24V518.33H15.34C28.39 518.33 39 507.71 39 494.67V480.58Z" stroke="#F2D785" stroke-miterlimit="10"/>
<path d="M249.99 556.09H235.9C222.85 556.09 212.24 545.47 212.24 532.43V518.34H226.33C239.38 518.34 249.99 528.96 249.99 542V556.09Z" stroke="#F2D785" stroke-miterlimit="10"/>
<path d="M179.66 480.58H165.57C152.52 480.58 141.91 491.2 141.91 504.24V518.33H156C169.05 518.33 179.66 507.71 179.66 494.67V480.58Z" stroke="#F2D785" stroke-miterlimit="10"/>
<path d="M390.66 556.09H376.57C363.52 556.09 352.91 545.47 352.91 532.43V518.34H367C380.05 518.34 390.66 528.96 390.66 542V556.09Z" stroke="#F2D785" stroke-miterlimit="10"/>
<path d="M320.32 480.58H306.23C293.18 480.58 282.57 491.2 282.57 504.24V518.33H296.66C309.71 518.33 320.32 507.71 320.32 494.67V480.58Z" stroke="#F2D785" stroke-miterlimit="10"/>
<path d="M531.32 556.09H517.23C504.18 556.09 493.57 545.47 493.57 532.43V518.34H507.66C520.71 518.34 531.32 528.96 531.32 542V556.09Z" stroke="#F2D785" stroke-miterlimit="10"/>
<path d="M460.99 480.58H446.9C433.85 480.58 423.24 491.2 423.24 504.24V518.33H437.33C450.38 518.33 460.99 507.71 460.99 494.67V480.58Z" stroke="#F2D785" stroke-miterlimit="10"/>
<path d="M671.98 556.09H657.891C644.841 556.09 634.23 545.47 634.23 532.43V518.34H648.32C661.37 518.34 671.98 528.96 671.98 542V556.09Z" stroke="#F2D785" stroke-miterlimit="10"/>
<path d="M601.65 480.58H587.56C574.51 480.58 563.9 491.2 563.9 504.24V518.33H577.99C591.04 518.33 601.65 507.71 601.65 494.67V480.58Z" stroke="#F2D785" stroke-miterlimit="10"/>
<path d="M812.64 556.09H798.55C785.5 556.09 774.89 545.47 774.89 532.43V518.34H788.98C802.03 518.34 812.64 528.96 812.64 542V556.09Z" stroke="#F2D785" stroke-miterlimit="10"/>
<path d="M742.31 470.4H728.22C715.17 470.4 704.56 481.02 704.56 494.06V508.15H718.65C731.7 508.15 742.31 497.53 742.31 484.49V470.4Z" stroke="#F2D785" stroke-miterlimit="10"/>
<path d="M109.33 374.54H95.2401C82.1901 374.54 71.5801 363.92 71.5801 350.88V336.79H85.6701C98.7201 336.79 109.33 347.41 109.33 360.45V374.54Z" stroke="#F2D785" stroke-miterlimit="10"/>
<path d="M39 296.48H24.91C11.86 296.48 1.25 307.1 1.25 320.14V334.23H15.34C28.39 334.23 39 323.61 39 310.57V296.48Z" stroke="#F2D785" stroke-miterlimit="10"/>
<path d="M249.99 374.54H235.9C222.85 374.54 212.24 363.92 212.24 350.88V336.79H226.33C239.38 336.79 249.99 347.41 249.99 360.45V374.54Z" stroke="#F2D785" stroke-miterlimit="10"/>
<path d="M179.66 296.48H165.57C152.52 296.48 141.91 307.1 141.91 320.14V334.23H156C169.05 334.23 179.66 323.61 179.66 310.57V296.48Z" stroke="#F2D785" stroke-miterlimit="10"/>
<path d="M390.66 374.54H376.57C363.52 374.54 352.91 363.92 352.91 350.88V336.79H367C380.05 336.79 390.66 347.41 390.66 360.45V374.54Z" stroke="#F2D785" stroke-miterlimit="10"/>
<path d="M320.32 296.48H306.23C293.18 296.48 282.57 307.1 282.57 320.14V334.23H296.66C309.71 334.23 320.32 323.61 320.32 310.57V296.48Z" stroke="#F2D785" stroke-miterlimit="10"/>
<path d="M531.32 374.54H517.23C504.18 374.54 493.57 363.92 493.57 350.88V336.79H507.66C520.71 336.79 531.32 347.41 531.32 360.45V374.54Z" stroke="#F2D785" stroke-miterlimit="10"/>
<path d="M460.99 296.48H446.9C433.85 296.48 423.24 307.1 423.24 320.14V334.23H437.33C450.38 334.23 460.99 323.61 460.99 310.57V296.48Z" stroke="#F2D785" stroke-miterlimit="10"/>
<path d="M671.98 374.54H657.891C644.841 374.54 634.23 363.92 634.23 350.88V336.79H648.32C661.37 336.79 671.98 347.41 671.98 360.45V374.54Z" stroke="#F2D785" stroke-miterlimit="10"/>
<path d="M601.65 296.48H587.56C574.51 296.48 563.9 307.1 563.9 320.14V334.23H577.99C591.04 334.23 601.65 323.61 601.65 310.57V296.48Z" stroke="#F2D785" stroke-miterlimit="10"/>
<path d="M812.64 374.54H798.55C785.5 374.54 774.89 363.92 774.89 350.88V336.79H788.98C802.03 336.79 812.64 347.41 812.64 360.45V374.54Z" stroke="#F2D785" stroke-miterlimit="10"/>
<path d="M742.31 288.85H728.22C715.17 288.85 704.56 299.47 704.56 312.51V326.6H718.65C731.7 326.6 742.31 315.98 742.31 302.94V288.85Z" stroke="#F2D785" stroke-miterlimit="10"/>
<path d="M109.33 278.67H95.2401C82.1901 278.67 71.5801 268.05 71.5801 255.01V240.92H85.6701C98.7201 240.92 109.33 251.54 109.33 264.58V278.67Z" stroke="#F2D785" stroke-miterlimit="10"/>
<path d="M39 198.07H24.91C11.86 198.07 1.25 208.69 1.25 221.73V235.82H15.34C28.39 235.82 39 225.2 39 212.16V198.07Z" stroke="#F2D785" stroke-miterlimit="10"/>
<path d="M249.99 278.67H235.9C222.85 278.67 212.24 268.05 212.24 255.01V240.92H226.33C239.38 240.92 249.99 251.54 249.99 264.58V278.67Z" stroke="#F2D785" stroke-miterlimit="10"/>
<path d="M179.66 198.07H165.57C152.52 198.07 141.91 208.69 141.91 221.73V235.82H156C169.05 235.82 179.66 225.2 179.66 212.16V198.07Z" stroke="#F2D785" stroke-miterlimit="10"/>
<path d="M390.66 278.67H376.57C363.52 278.67 352.91 268.05 352.91 255.01V240.92H367C380.05 240.92 390.66 251.54 390.66 264.58V278.67Z" stroke="#F2D785" stroke-miterlimit="10"/>
<path d="M320.32 198.07H306.23C293.18 198.07 282.57 208.69 282.57 221.73V235.82H296.66C309.71 235.82 320.32 225.2 320.32 212.16V198.07Z" stroke="#F2D785" stroke-miterlimit="10"/>
<path d="M531.32 278.67H517.23C504.18 278.67 493.57 268.05 493.57 255.01V240.92H507.66C520.71 240.92 531.32 251.54 531.32 264.58V278.67Z" stroke="#F2D785" stroke-miterlimit="10"/>
<path d="M460.99 198.07H446.9C433.85 198.07 423.24 208.69 423.24 221.73V235.82H437.33C450.38 235.82 460.99 225.2 460.99 212.16V198.07Z" stroke="#F2D785" stroke-miterlimit="10"/>
<path d="M671.98 278.67H657.891C644.841 278.67 634.23 268.05 634.23 255.01V240.92H648.32C661.37 240.92 671.98 251.54 671.98 264.58V278.67Z" stroke="#F2D785" stroke-miterlimit="10"/>
<path d="M601.65 198.07H587.56C574.51 198.07 563.9 208.69 563.9 221.73V235.82H577.99C591.04 235.82 601.65 225.2 601.65 212.16V198.07Z" stroke="#F2D785" stroke-miterlimit="10"/>
<path d="M812.64 278.67H798.55C785.5 278.67 774.89 268.05 774.89 255.01V240.92H788.98C802.03 240.92 812.64 251.54 812.64 264.58V278.67Z" stroke="#F2D785" stroke-miterlimit="10"/>
<path d="M742.31 192.98H728.22C715.17 192.98 704.56 203.6 704.56 216.64V230.73H718.65C731.7 230.73 742.31 220.11 742.31 207.07V192.98Z" stroke="#F2D785" stroke-miterlimit="10"/>
<path d="M109.33 182.81H95.2401C82.1901 182.81 71.5801 172.19 71.5801 159.15V145.06H85.6701C98.7201 145.06 109.33 155.68 109.33 168.72V182.81Z" stroke="#F2D785" stroke-miterlimit="10"/>
<path d="M39 99.6602H24.91C11.86 99.6602 1.25 110.28 1.25 123.32V137.41H15.34C28.39 137.41 39 126.79 39 113.75V99.6602Z" stroke="#F2D785" stroke-miterlimit="10"/>
<path d="M249.99 182.81H235.9C222.85 182.81 212.24 172.19 212.24 159.15V145.06H226.33C239.38 145.06 249.99 155.68 249.99 168.72V182.81Z" stroke="#F2D785" stroke-miterlimit="10"/>
<path d="M179.66 99.6602H165.57C152.52 99.6602 141.91 110.28 141.91 123.32V137.41H156C169.05 137.41 179.66 126.79 179.66 113.75V99.6602Z" stroke="#F2D785" stroke-miterlimit="10"/>
<path d="M390.66 182.81H376.57C363.52 182.81 352.91 172.19 352.91 159.15V145.06H367C380.05 145.06 390.66 155.68 390.66 168.72V182.81Z" stroke="#F2D785" stroke-miterlimit="10"/>
<path d="M320.32 99.6602H306.23C293.18 99.6602 282.57 110.28 282.57 123.32V137.41H296.66C309.71 137.41 320.32 126.79 320.32 113.75V99.6602Z" stroke="#F2D785" stroke-miterlimit="10"/>
<path d="M531.32 182.81H517.23C504.18 182.81 493.57 172.19 493.57 159.15V145.06H507.66C520.71 145.06 531.32 155.68 531.32 168.72V182.81Z" stroke="#F2D785" stroke-miterlimit="10"/>
<path d="M460.99 99.6602H446.9C433.85 99.6602 423.24 110.28 423.24 123.32V137.41H437.33C450.38 137.41 460.99 126.79 460.99 113.75V99.6602Z" stroke="#F2D785" stroke-miterlimit="10"/>
<path d="M671.98 182.81H657.891C644.841 182.81 634.23 172.19 634.23 159.15V145.06H648.32C661.37 145.06 671.98 155.68 671.98 168.72V182.81Z" stroke="#F2D785" stroke-miterlimit="10"/>
<path d="M601.65 99.6602H587.56C574.51 99.6602 563.9 110.28 563.9 123.32V137.41H577.99C591.04 137.41 601.65 126.79 601.65 113.75V99.6602Z" stroke="#F2D785" stroke-miterlimit="10"/>
<path d="M812.64 182.81H798.55C785.5 182.81 774.89 172.19 774.89 159.15V145.06H788.98C802.03 145.06 812.64 155.68 812.64 168.72V182.81Z" stroke="#F2D785" stroke-miterlimit="10"/>
<path d="M742.31 97.1201H728.22C715.17 97.1201 704.56 107.74 704.56 120.78V134.87H718.65C731.7 134.87 742.31 124.25 742.31 111.21V97.1201Z" stroke="#F2D785" stroke-miterlimit="10"/>
<path d="M109.33 86.9404H95.2401C82.1901 86.9404 71.5801 76.3204 71.5801 63.2804V49.1904H85.6701C98.7201 49.1904 109.33 59.8104 109.33 72.8504V86.9404Z" stroke="#F2D785" stroke-miterlimit="10"/>
<path d="M39 1.25H24.91C11.86 1.25 1.25 11.87 1.25 24.91V39H15.34C28.38 39.01 39 28.39 39 15.35V1.25Z" stroke="#F2D785" stroke-miterlimit="10"/>
<path d="M249.99 86.9404H235.9C222.85 86.9404 212.24 76.3204 212.24 63.2804V49.1904H226.33C239.38 49.1904 249.99 59.8104 249.99 72.8504V86.9404Z" stroke="#F2D785" stroke-miterlimit="10"/>
<path d="M179.66 1.25H165.57C152.52 1.25 141.91 11.87 141.91 24.91V39H156C169.05 39 179.66 28.38 179.66 15.34V1.25Z" stroke="#F2D785" stroke-miterlimit="10"/>
<path d="M390.66 86.9404H376.57C363.52 86.9404 352.91 76.3204 352.91 63.2804V49.1904H367C380.05 49.1904 390.66 59.8104 390.66 72.8504V86.9404Z" stroke="#F2D785" stroke-miterlimit="10"/>
<path d="M320.32 1.25H306.23C293.18 1.25 282.57 11.87 282.57 24.91V39H296.66C309.71 39 320.32 28.38 320.32 15.34V1.25Z" stroke="#F2D785" stroke-miterlimit="10"/>
<path d="M531.32 86.9404H517.23C504.18 86.9404 493.57 76.3204 493.57 63.2804V49.1904H507.66C520.71 49.1904 531.32 59.8104 531.32 72.8504V86.9404Z" stroke="#F2D785" stroke-miterlimit="10"/>
<path d="M460.99 1.25H446.9C433.85 1.25 423.24 11.87 423.24 24.91V39H437.33C450.38 39 460.99 28.38 460.99 15.34V1.25Z" stroke="#F2D785" stroke-miterlimit="10"/>
<path d="M671.98 86.9404H657.891C644.841 86.9404 634.23 76.3204 634.23 63.2804V49.1904H648.32C661.37 49.1904 671.98 59.8104 671.98 72.8504V86.9404Z" stroke="#F2D785" stroke-miterlimit="10"/>
<path d="M601.65 1.25H587.56C574.51 1.25 563.9 11.87 563.9 24.91V39H577.99C591.04 39 601.65 28.38 601.65 15.34V1.25Z" stroke="#F2D785" stroke-miterlimit="10"/>
<path d="M812.64 86.9404H798.55C785.5 86.9404 774.89 76.3204 774.89 63.2804V49.1904H788.98C802.03 49.1904 812.64 59.8104 812.64 72.8504V86.9404Z" stroke="#F2D785" stroke-miterlimit="10"/>
<path d="M742.31 1.25H728.22C715.17 1.25 704.56 11.87 704.56 24.91V39H718.65C731.7 39 742.31 28.38 742.31 15.34V1.25Z" stroke="#F2D785" stroke-miterlimit="10"/>
</svg>