<svg xmlns="http://www.w3.org/2000/svg" width="18" height="18" viewBox="0 0 18 18" fill="none">
<path d="M11.9082 7.02508C11.7582 4.70008 10.8165 2.43341 9.04984 0.666748C7.2665 2.45008 6.28317 4.71675 6.0915 7.02508C7.15817 7.59175 8.1415 8.32508 8.99984 9.21675C9.85817 8.33342 10.8415 7.60008 11.9082 7.02508ZM9.0415 3.32508C9.5665 4.18341 9.93317 5.14175 10.1248 6.14175C9.73317 6.39175 9.3665 6.66675 9.00817 6.95842C8.65817 6.67508 8.28317 6.40008 7.89984 6.15008C8.10817 5.15008 8.4915 4.19175 9.0415 3.32508ZM8.99984 11.8751C8.3165 10.8334 7.44984 9.92508 6.44984 9.20842C6.3415 9.13342 6.22484 9.07508 6.1165 8.99175C6.22484 9.06675 6.3415 9.13342 6.4415 9.20008C4.8165 8.02508 2.82484 7.33342 0.666504 7.33342C0.666504 11.7667 3.4665 15.5167 7.35817 16.9084C7.88317 17.1001 8.43317 17.2417 8.99984 17.3334C9.5665 17.2334 10.1082 17.0917 10.6415 16.9084C14.5332 15.5167 17.3332 11.7667 17.3332 7.33342C13.8498 7.33342 10.7915 9.14175 8.99984 11.8751ZM10.0998 15.3334C9.73317 15.4584 9.3665 15.5584 8.9915 15.6417C8.62484 15.5667 8.2665 15.4667 7.92484 15.3417C5.18317 14.3584 3.17484 12.0167 2.54984 9.21675C3.4665 9.43342 4.3415 9.80842 5.14984 10.3251L5.13317 10.3334C5.2415 10.4084 5.34984 10.4834 5.45817 10.5417L5.5165 10.5751C6.3415 11.1751 7.04984 11.9167 7.60817 12.7834L8.99984 14.9167L10.3915 12.7917C10.9665 11.9167 11.6832 11.1667 12.4998 10.5751L12.5582 10.5334C12.6332 10.4917 12.7082 10.4417 12.7832 10.3917L12.7748 10.3751C13.5915 9.83342 14.4998 9.43342 15.4498 9.20842C14.8248 12.0167 12.8248 14.3584 10.0998 15.3334ZM6.4915 9.23341C6.47484 9.22508 6.45817 9.20842 6.44984 9.20008C6.44984 9.20008 6.45817 9.20008 6.45817 9.20842C6.4665 9.21675 6.47484 9.22508 6.4915 9.23341Z" fill="#707070"/>
</svg>