<svg xmlns="http://www.w3.org/2000/svg" width="18" height="15" viewBox="0 0 18 15" fill="none">
<path d="M16.873 9.71677V4.66676C16.873 3.7501 16.123 3.0001 15.2064 3.0001H9.96471L9.08138 2.11676L10.2564 0.941764L9.66471 0.350098L6.72305 3.29176L7.31471 3.88343L8.48971 2.70843L9.37305 3.59176V5.5001C9.37305 6.41676 8.62305 7.16676 7.70638 7.16676H6.00638C5.82305 7.03343 5.63138 6.91676 5.43138 6.80843L5.09805 7.5501L4.71471 7.3751L5.04805 6.6251C4.58971 6.44177 4.07305 6.33343 3.53971 6.33343C3.09805 6.33343 2.67305 6.4251 2.27305 6.5501L2.55638 7.30843L2.16471 7.45843L1.87305 6.68343C0.989713 7.06676 0.28138 7.7501 -0.151953 8.60843L0.589713 8.94176L0.414713 9.3251L-0.335286 8.99177C-0.51862 9.4501 -0.626953 9.96677 -0.626953 10.5001C-0.626953 10.9418 -0.535286 11.3668 -0.410286 11.7668L0.348047 11.4834L0.498047 11.8751L-0.276953 12.1668C0.10638 13.0501 0.789714 13.7584 1.64805 14.1918L1.98138 13.4501L2.36471 13.6251L2.03138 14.3751C2.48971 14.5584 3.00638 14.6668 3.53971 14.6668C3.98138 14.6668 4.40638 14.5751 4.80638 14.4501L4.52305 13.6918L4.91471 13.5418L5.20638 14.3168C6.08971 13.9334 6.79805 13.2501 7.23138 12.3918L6.48971 12.0584L6.66471 11.6751L7.41471 12.0084C7.49805 11.7918 7.56471 11.5584 7.61471 11.3251H11.9147C11.898 11.4668 11.873 11.6084 11.873 11.7501C11.873 13.3584 13.1814 14.6668 14.7897 14.6668C16.398 14.6668 17.7064 13.3584 17.7064 11.7501C17.7064 10.9584 17.3897 10.2418 16.873 9.71677ZM3.53971 13.0001C2.15638 13.0001 1.03971 11.8834 1.03971 10.5001C1.03971 9.11677 2.15638 8.0001 3.53971 8.0001C4.92305 8.0001 6.03971 9.11677 6.03971 10.5001C6.03971 11.8834 4.92305 13.0001 3.53971 13.0001ZM7.59805 9.66677C7.56471 9.51676 7.53138 9.3751 7.48971 9.23343L6.73138 9.51676L6.58138 9.1251L7.35638 8.83343H7.70638C9.54805 8.83343 11.0397 7.34176 11.0397 5.5001V4.66676H15.2064V8.8751C15.073 8.85843 14.9314 8.83343 14.7897 8.83343C13.998 8.83343 13.2814 9.1501 12.7564 9.66677H7.59805ZM14.7897 13.0001C14.098 13.0001 13.5397 12.4418 13.5397 11.7501C13.5397 11.0584 14.098 10.5001 14.7897 10.5001C15.4814 10.5001 16.0397 11.0584 16.0397 11.7501C16.0397 12.4418 15.4814 13.0001 14.7897 13.0001Z" fill="#707070"/>
</svg>