<svg xmlns="http://www.w3.org/2000/svg" width="13" height="13" viewBox="0 0 13 13" fill="none">
<path d="M10.2414 2.75841C9.88311 2.40008 9.45811 2.15008 8.99977 1.98341V0.666748H8.16644V1.81675C8.07477 1.80841 7.97477 1.79175 7.88311 1.79175C7.03311 1.79175 6.17478 2.11675 5.52478 2.76675C5.42478 2.86675 5.27478 3.01675 5.10811 3.18342L3.99978 2.76675C2.69978 2.30842 1.26644 2.99175 0.808109 4.28342C0.583109 4.90841 0.616442 5.59175 0.908109 6.19175C1.09978 6.59175 1.39144 6.91675 1.74144 7.15841C1.42478 8.28341 1.69144 9.53342 2.57478 10.4167C3.22478 11.0667 4.07478 11.3917 4.93311 11.3917C5.24144 11.3917 5.54144 11.3334 5.84144 11.2501C6.08311 11.6001 6.40811 11.8917 6.80811 12.0834C7.14978 12.2501 7.50811 12.3334 7.87477 12.3334C8.15811 12.3334 8.44144 12.2834 8.71644 12.1917C10.0164 11.7334 10.6998 10.3001 10.2331 8.98341L9.82477 7.90008C9.99144 7.73342 10.1414 7.58342 10.2414 7.48342C10.9664 6.75842 11.2748 5.78342 11.1914 4.84175H12.3331V4.00841H11.0081C10.8498 3.55008 10.5998 3.12508 10.2414 2.75841ZM5.31644 9.68341C5.19144 9.71675 5.06644 9.73341 4.93311 9.73341C4.49144 9.73341 4.06644 9.55842 3.75811 9.24175C3.44144 8.92508 3.26644 8.50841 3.26644 8.06675C3.26644 7.93341 3.29144 7.80008 3.31644 7.67508C3.43311 7.68341 3.54978 7.70008 3.66644 7.70008C4.37478 7.70008 5.06644 7.53341 5.69978 7.30008C5.43311 8.04175 5.24977 8.85841 5.31644 9.68341ZM2.89144 5.90841C2.68311 5.83342 2.51644 5.68341 2.41644 5.48341C2.31644 5.28341 2.30811 5.05842 2.38311 4.85008C2.54144 4.41675 3.01644 4.19175 3.43311 4.34175L6.06644 5.33342C5.10811 5.83342 3.87478 6.25841 2.89144 5.90841ZM8.15811 10.6167C7.94977 10.6917 7.72477 10.6834 7.52477 10.5834C7.32477 10.4917 7.17478 10.3167 7.09978 10.1084C6.74978 9.12508 7.17477 7.90008 7.68311 6.94175L8.66644 9.55008C8.81644 9.98341 8.59144 10.4667 8.15811 10.6167ZM9.16644 6.16675L8.65811 4.82508C8.65811 4.81675 8.64977 4.80841 8.64144 4.80008C8.62477 4.76675 8.60811 4.73342 8.59144 4.70008C8.57477 4.66675 8.55811 4.64175 8.53311 4.60841C8.50811 4.58341 8.48311 4.55842 8.45811 4.53342C8.43311 4.50842 8.40811 4.48342 8.38311 4.45842C8.35811 4.43341 8.32477 4.41675 8.29144 4.40008C8.25811 4.38341 8.23311 4.35841 8.19144 4.35008C8.18311 4.35008 8.17477 4.34175 8.16644 4.33341L6.83311 3.83342C7.13311 3.59175 7.49144 3.45008 7.88311 3.45008C8.32477 3.45008 8.74977 3.62508 9.05811 3.94175C9.66644 4.55008 9.69977 5.50842 9.16644 6.16675Z" fill="#fff"/>
</svg>