<svg xmlns="http://www.w3.org/2000/svg" width="16" height="14" viewBox="0 0 16 14" fill="none">
<path d="M15.5 6.99992V5.33325H13.8333V2.83325L11.3333 0.333252L9.66667 1.99992L8 0.333252L6.33333 1.99992L4.66667 0.333252L2.16667 2.83325V5.33325H0.5V6.99992H2.16667V8.66658H0.5V10.3333H2.16667V13.6666H13.8333V10.3333H15.5V8.66658H13.8333V6.99992H15.5ZM11.3333 2.69159L12.1667 3.52492V5.33325H10.5V3.52492L10.8417 3.18325L11.3333 2.69159ZM8 2.69159L8.49167 3.18325L8.83333 3.52492V5.33325H7.16667V3.52492L7.50833 3.18325L8 2.69159ZM7.16667 8.66658V6.99992H8.83333V8.66658H7.16667ZM8.83333 10.3333V11.9999H7.16667V10.3333H8.83333ZM3.83333 3.52492L4.66667 2.69159L5.15833 3.18325L5.5 3.52492V5.33325H3.83333V3.52492ZM3.83333 6.99992H5.5V8.66658H3.83333V6.99992ZM3.83333 10.3333H5.5V11.9999H3.83333V10.3333ZM12.1667 11.9999H10.5V10.3333H12.1667V11.9999ZM12.1667 8.66658H10.5V6.99992H12.1667V8.66658Z" fill="#707070"/>
</svg>