<svg xmlns="http://www.w3.org/2000/svg" width="11" height="19" viewBox="0 0 11 19" fill="none">
<path d="M6.25 3.58333C7.16667 3.58333 7.91667 2.83333 7.91667 1.91667C7.91667 1 7.16667 0.25 6.25 0.25C5.33333 0.25 4.58333 1 4.58333 1.91667C4.58333 2.83333 5.33333 3.58333 6.25 3.58333ZM3.16667 6.41667L0.833333 18.1667H2.58333L4.08333 11.5L5.83333 13.1667V18.1667H7.5V11.9167L5.75 10.25L6.25 7.75C7.33333 9 9 9.83333 10.8333 9.83333V8.16667C9.25 8.16667 7.91667 7.33333 7.25 6.16667L6.41667 4.83333C5.95 4.09167 5.01667 3.79167 4.20833 4.13333L0 5.91667V9.83333H1.66667V7L3.16667 6.41667Z" fill="#707070"/>
</svg>