<svg xmlns="http://www.w3.org/2000/svg" width="199" height="48" viewBox="0 0 199 48" fill="none">
<path d="M184.341 24.6301H175.307V33.6641C175.307 35.7338 175.747 37.7003 176.54 39.4767C178.773 44.4907 183.808 48 189.643 48H198.677V38.966C198.677 31.062 192.245 24.6301 184.341 24.6301ZM196.21 45.5337H189.643C183.097 45.5337 177.773 40.21 177.773 33.6641V27.0964H184.341C190.887 27.0964 196.21 32.4201 196.21 38.966V45.5337Z" fill="#009F57"/>
<path d="M175.307 24.6301H168.739C160.835 24.6301 154.403 31.062 154.403 38.966V48H163.437C169.271 48 174.307 44.4907 176.54 39.4767C177.333 37.7003 177.773 35.7338 177.773 33.6641V24.6301H175.307ZM175.307 33.6641C175.307 40.2046 169.983 45.5337 163.437 45.5337H156.869V45.3381V38.966C156.869 32.4201 162.193 27.0964 168.739 27.0964H175.307V33.6641Z" fill="#009F57"/>
<path d="M189.643 0C181.739 0 175.307 6.43187 175.307 14.3359V23.3753H177.773V14.3359C177.773 7.78995 183.097 2.46628 189.643 2.46628H196.216V9.03395C196.216 15.5799 190.892 20.9036 184.346 20.9036H177.779L183.537 23.3699H184.352C192.256 23.3699 198.688 16.938 198.688 9.03395V0H189.643Z" fill="#009F57"/>
<path d="M160.096 17.9213V16.0417H167.604C169.25 16.0417 170.586 17.378 170.586 19.024V20.9036H163.079C161.438 20.909 160.096 19.5673 160.096 17.9213Z" fill="#27B8BE"/>
<path d="M183.792 33.2675C183.792 33.2675 192.098 38.3902 198.676 48L183.792 33.2675Z" fill="#009F57"/>
<path d="M177.773 20.9036H175.307V29.5627H177.773V20.9036Z" fill="#009F57"/>
<path d="M169.804 33.2675C169.804 33.2675 161.498 38.3902 154.919 48L169.804 33.2675Z" fill="#009F57"/>
<path d="M183.868 15.3626C183.868 15.3626 188.991 7.05657 198.601 0.478027L183.868 15.3626Z" fill="#009F57"/>
<path d="M142.501 17.2965V16.536C142.501 15.971 142.626 15.5636 142.876 15.3083C143.126 15.0584 143.49 14.9335 143.962 14.9335H145.255C145.402 14.9335 145.521 14.9824 145.625 15.0856C145.728 15.1888 145.777 15.3083 145.777 15.455V16.1503C145.777 16.297 145.728 16.4165 145.625 16.5143C145.521 16.6121 145.402 16.6664 145.255 16.6664H144.234V17.2965H145.255C145.326 17.2965 145.391 17.3128 145.456 17.34C145.521 17.3671 145.576 17.4052 145.625 17.4486C145.674 17.4921 145.706 17.5519 145.733 17.617C145.76 17.6822 145.777 17.7474 145.777 17.818V18.5188C145.777 18.5949 145.76 18.66 145.733 18.7252C145.706 18.7904 145.668 18.8447 145.625 18.8882C145.581 18.9317 145.521 18.9697 145.456 18.9968C145.391 19.024 145.326 19.0403 145.255 19.0403H142.191C142.115 19.0403 142.05 19.024 141.985 18.9968C141.92 18.9697 141.865 18.9317 141.822 18.8882C141.779 18.8393 141.741 18.785 141.713 18.7252C141.686 18.66 141.67 18.5949 141.67 18.5188V17.818C141.67 17.7474 141.686 17.6822 141.713 17.617C141.741 17.5519 141.779 17.4975 141.822 17.4486C141.871 17.3997 141.925 17.3671 141.985 17.34C142.05 17.3128 142.115 17.2965 142.191 17.2965H142.501Z" fill="#009F57"/>
<path d="M139.627 24.6899C139.839 24.1032 139.953 23.5274 139.953 22.9516C139.953 22.5387 139.888 22.1476 139.763 21.7891C139.638 21.4305 139.421 21.1263 139.116 20.871C138.807 20.6211 138.416 20.4201 137.927 20.2789C137.443 20.1322 136.829 20.067 136.096 20.067H130.506C130.365 20.067 130.235 20.1213 130.131 20.2246C130.023 20.3332 129.968 20.4581 129.968 20.6048V22.4898C129.968 22.6365 130.023 22.7614 130.131 22.8647C130.24 22.9679 130.365 23.0276 130.506 23.0276H136.123C136.623 23.0276 136.976 23.1634 137.172 23.4296C137.367 23.7012 137.47 24.0163 137.47 24.3748C137.47 24.7171 137.4 25.0648 137.264 25.4179C137.128 25.7655 136.965 26.048 136.764 26.2653H115.127C115.453 25.7981 115.719 25.2712 115.937 24.6899C116.154 24.1032 116.263 23.5274 116.263 22.9516C116.263 22.5387 116.203 22.1476 116.072 21.7891C115.948 21.4305 115.73 21.1263 115.426 20.871C115.122 20.6211 114.725 20.4201 114.242 20.2789C113.753 20.1322 113.144 20.067 112.406 20.067H106.81C106.229 20.0724 105.664 20.1702 105.121 20.3658C104.697 20.5125 104.306 20.7298 103.953 21.0014V20.6048C103.953 20.4581 103.92 20.3332 103.855 20.2246C103.79 20.1159 103.714 20.067 103.632 20.067H102.497C102.41 20.067 102.334 20.1213 102.269 20.2246C102.209 20.3332 102.171 20.4581 102.171 20.6048V26.2653H82.4138V20.6048C82.4138 20.4581 82.3595 20.3332 82.2563 20.2246C82.1476 20.1159 82.0227 20.067 81.876 20.067H79.991C79.8443 20.067 79.7194 20.1213 79.6161 20.2246C79.5075 20.3332 79.4532 20.4581 79.4532 20.6048V28.8185C79.4532 29.5573 79.2956 30.0571 78.9806 30.3287C78.6655 30.6003 78.2744 30.7307 77.8072 30.7307C77.6605 30.7307 77.5193 30.7198 77.3726 30.7035C77.2314 30.6872 77.0847 30.66 76.938 30.622L76.2644 33.1263C76.6229 33.235 76.9706 33.311 77.3074 33.3599C77.6388 33.4034 77.9756 33.4251 78.3178 33.4251C78.9099 33.4251 79.4532 33.3327 79.9475 33.1535C80.4419 32.9742 80.8764 32.6972 81.2458 32.3169C81.6152 31.9421 81.9032 31.464 82.1096 30.8882C82.278 30.4156 82.3758 29.8561 82.4029 29.2313H139.421C139.562 29.2313 139.692 29.177 139.795 29.0684C139.899 28.9597 139.958 28.8348 139.958 28.6935V26.2653H138.818C139.144 25.7981 139.41 25.2766 139.627 24.6899ZM113.574 25.4179C113.438 25.7655 113.275 26.048 113.074 26.2653H105.17V25.0267C105.17 24.3423 105.344 23.8371 105.697 23.5165C106.05 23.1906 106.43 23.0276 106.843 23.0276H112.427C112.927 23.0276 113.28 23.1634 113.476 23.4296C113.671 23.7012 113.775 24.0163 113.775 24.3748C113.78 24.7225 113.709 25.0648 113.574 25.4179Z" fill="#009F57"/>
<path d="M133.5 18.0136C133.391 17.905 133.337 17.78 133.337 17.6333V15.4767C133.337 15.3355 133.391 15.2051 133.5 15.0964C133.608 14.9878 133.733 14.9335 133.88 14.9335H136.037C136.178 14.9335 136.308 14.9878 136.417 15.0964C136.525 15.2051 136.58 15.33 136.58 15.4767V17.6333C136.58 17.7746 136.525 17.905 136.417 18.0136C136.308 18.1222 136.183 18.1766 136.037 18.1766H133.88C133.733 18.1766 133.608 18.1222 133.5 18.0136Z" fill="#009F57"/>
<path d="M107.794 18.0136C107.685 17.905 107.631 17.78 107.631 17.6333V15.4767C107.631 15.3355 107.685 15.2051 107.794 15.0964C107.902 14.9878 108.027 14.9335 108.174 14.9335H110.331C110.472 14.9335 110.602 14.9878 110.711 15.0964C110.82 15.2051 110.874 15.33 110.874 15.4767V17.6333C110.874 17.7746 110.82 17.905 110.711 18.0136C110.602 18.1222 110.477 18.1766 110.331 18.1766H108.174C108.027 18.1766 107.902 18.1222 107.794 18.0136Z" fill="#009F57"/>
<path d="M72.1417 29.0901C71.7071 29.1987 71.1965 29.2531 70.6152 29.2531H72.2558C72.4025 29.2531 72.5274 29.1987 72.6415 29.0901C72.7447 28.9815 72.799 28.8565 72.799 28.7153C72.7936 28.8511 72.5763 28.976 72.1417 29.0901Z" fill="#009F57"/>
<path d="M72.3642 22.5822C72.0762 21.9738 71.7014 21.4577 71.2288 21.0448C70.7616 20.632 70.2347 20.3223 69.6534 20.1159C69.0667 19.904 68.4692 19.8008 67.8553 19.8008C67.2632 19.8008 66.6874 19.8986 66.1333 20.0996C65.5737 20.3006 65.0794 20.5994 64.6448 21.0068C64.2157 21.4088 63.868 21.9194 63.6018 22.5278C63.3465 23.1417 63.2107 23.8696 63.2107 24.7171V26.2816H44.1921V25.4993C44.1921 24.6519 44.0563 23.924 43.7956 23.3155C43.5402 22.7017 43.1926 22.1965 42.7634 21.7891C42.3288 21.3871 41.8345 21.0828 41.275 20.8873C40.7154 20.6917 40.1396 20.5885 39.5475 20.5885V20.5939H27.8952V20.5885H28.2428V20.1974C28.2428 19.5129 28.4167 19.0077 28.7698 18.6872C29.1174 18.3613 29.5031 18.2037 29.916 18.2037L42.7526 18.1711L44.1976 15.2268H29.916V15.2322C29.3239 15.2322 28.748 15.33 28.1939 15.531C27.6344 15.7266 27.1346 16.0254 26.7055 16.4274C26.2709 16.8293 25.9232 17.34 25.6625 17.9538C25.4017 18.5623 25.2713 19.2902 25.2713 20.1376V23.5491H39.5475C39.9658 23.5491 40.346 23.7067 40.6991 24.0326C41.0468 24.3585 41.2206 24.8637 41.2206 25.5428V26.2707H9.5828V24.7062C9.5828 23.8588 9.45242 23.1308 9.19167 22.517C8.93092 21.9086 8.58868 21.3979 8.14867 20.9959C7.71408 20.5939 7.21974 20.2897 6.67107 20.0887C6.11154 19.8932 5.53572 19.79 4.94359 19.79C4.33517 19.79 3.73219 19.8932 3.15093 20.105C2.56424 20.3115 2.04273 20.6211 1.57012 21.034C1.10838 21.4468 0.722682 21.9629 0.434769 22.5713C0.146856 23.1852 0.00561523 23.8914 0.00561523 24.7062V28.699C0.00561523 28.8402 0.059936 28.9652 0.168582 29.0738C0.277229 29.1824 0.402174 29.2368 0.543414 29.2368H70.6095C71.1962 29.2368 71.7014 29.1824 72.136 29.0738C72.5706 28.9652 72.7879 28.8402 72.7879 28.699V24.7062C72.7933 23.9077 72.6521 23.2015 72.3642 22.5822ZM6.61675 26.2816H2.97166V24.7714C2.97166 24.1195 3.17809 23.6252 3.59638 23.2829C4.00924 22.9407 4.45469 22.7669 4.94359 22.7669C5.35645 22.7669 5.73671 22.9353 6.08982 23.2558C6.44292 23.5817 6.61675 24.0869 6.61675 24.7714V26.2816ZM69.8273 26.2816H66.1876V24.7714C66.1876 24.0869 66.3614 23.5817 66.7145 23.2558C67.0622 22.9353 67.4479 22.7669 67.8553 22.7669C68.3442 22.7669 68.7897 22.9407 69.208 23.2829C69.6208 23.6252 69.8273 24.1195 69.8273 24.7714V26.2816Z" fill="#009F57"/>
<path d="M145.049 20.2245C145.157 20.3332 145.212 20.4581 145.212 20.6048V32.8927C145.212 33.034 145.157 33.1643 145.049 33.273C144.94 33.3816 144.815 33.436 144.669 33.436H142.778C142.631 33.436 142.506 33.3816 142.398 33.273C142.289 33.1643 142.235 33.0394 142.235 32.8927V20.6048C142.235 20.4581 142.289 20.3332 142.398 20.2245C142.506 20.1159 142.631 20.0616 142.778 20.0616H144.669C144.815 20.0616 144.94 20.1159 145.049 20.2245Z" fill="#009F57"/>
<path d="M0.852783 14.8683V13.608H5.88312C6.98588 13.608 7.88221 14.5043 7.88221 15.6071V16.8674H2.85188C1.74912 16.8674 0.852783 15.971 0.852783 14.8683Z" fill="#27B8BE"/>
<path d="M32.8438 20.5939H27.9004V20.5994H32.8438V20.5939Z" fill="#009F57"/>
<path d="M32.8438 23.56H27.9004V23.5654H32.8438V23.56Z" fill="#009F57"/>
<path d="M28.2481 20.5939H27.9004V20.5994H28.2481V20.5939Z" fill="#009F57"/>
<path d="M0.010867 41.4486C0.010867 41.0086 0.358534 40.6609 0.798552 40.6609H0.972386C1.30919 40.6609 1.54821 40.8347 1.68945 41.0737L3.5962 44.181L5.51381 41.0629C5.67678 40.7967 5.90494 40.6609 6.22001 40.6609H6.39385C6.83386 40.6609 7.18153 41.0086 7.18153 41.4486V47.1525C7.18153 47.5925 6.83386 47.9402 6.39385 47.9402C5.96469 47.9402 5.61702 47.5817 5.61702 47.1525V43.5726L4.23178 45.7075C4.06881 45.952 3.86238 46.1095 3.57447 46.1095C3.28656 46.1095 3.08013 45.9574 2.91716 45.7075L1.55364 43.6052V47.1742C1.55364 47.6034 1.20597 47.9456 0.771389 47.9456C0.336803 47.9456 0 47.6088 0 47.1742V41.4486H0.010867Z" fill="#009F57"/>
<path d="M8.51258 46.8646L11.0169 41.215C11.1907 40.8239 11.5112 40.5903 11.9404 40.5903H12.0327C12.4619 40.5903 12.7715 40.8239 12.9454 41.215L15.4497 46.8646C15.4985 46.9787 15.5311 47.0819 15.5311 47.1851C15.5311 47.6034 15.2052 47.9456 14.7815 47.9456C14.4121 47.9456 14.1676 47.7283 14.021 47.4024L13.5375 46.2725H10.3759L9.87066 47.4513C9.73485 47.7609 9.46867 47.9456 9.14273 47.9456C8.72987 47.9456 8.41479 47.6197 8.41479 47.2068C8.42023 47.0873 8.46369 46.9733 8.51258 46.8646ZM12.9562 44.8709L11.9621 42.5025L10.968 44.8709H12.9562Z" fill="#009F57"/>
<path d="M16.7695 41.4269C16.7695 40.9869 17.1172 40.6392 17.5572 40.6392C17.9972 40.6392 18.3449 40.9869 18.3449 41.4269V43.8389L21.2566 40.9489C21.4522 40.7533 21.6478 40.6392 21.9248 40.6392C22.3648 40.6392 22.6527 40.976 22.6527 41.3672C22.6527 41.6116 22.5387 41.7963 22.3648 41.9593L20.344 43.8443L22.5495 46.6148C22.6745 46.7669 22.7668 46.9353 22.7668 47.1689C22.7668 47.6089 22.43 47.9403 21.9683 47.9403C21.6586 47.9403 21.4739 47.7882 21.3001 47.56L19.2467 44.871L18.3449 45.713V47.1471C18.3449 47.5872 17.9972 47.9348 17.5572 47.9348C17.1172 47.9348 16.7695 47.5872 16.7695 47.1471V41.4269Z" fill="#009F57"/>
<path d="M24.0703 41.4269C24.0703 40.9869 24.418 40.6392 24.858 40.6392C25.298 40.6392 25.6457 40.9869 25.6457 41.4269V43.8389L28.5574 40.9489C28.753 40.7533 28.9485 40.6392 29.2256 40.6392C29.6656 40.6392 29.9535 40.976 29.9535 41.3672C29.9535 41.6116 29.8394 41.7963 29.6656 41.9593L27.6448 43.8443L29.8503 46.6148C29.9753 46.7669 30.0676 46.9353 30.0676 47.1689C30.0676 47.6089 29.7308 47.9403 29.269 47.9403C28.9594 47.9403 28.7747 47.7882 28.6009 47.56L26.5475 44.871L25.6457 45.713V47.1471C25.6457 47.5872 25.298 47.9348 24.858 47.9348C24.418 47.9348 24.0703 47.5872 24.0703 47.1471V41.4269Z" fill="#009F57"/>
<path d="M30.921 46.8646L33.4253 41.215C33.5992 40.8239 33.9197 40.5903 34.3488 40.5903H34.4412C34.8703 40.5903 35.18 40.8239 35.3538 41.215L37.8581 46.8646C37.907 46.9787 37.9396 47.0819 37.9396 47.1851C37.9396 47.6034 37.6136 47.9456 37.1899 47.9456C36.8205 47.9456 36.5761 47.7283 36.4294 47.4024L35.9459 46.2725H32.7843L32.2791 47.4513C32.1433 47.7609 31.8771 47.9456 31.5512 47.9456C31.1383 47.9456 30.8232 47.6197 30.8232 47.2068C30.8287 47.0873 30.8667 46.9733 30.921 46.8646ZM35.3592 44.8709L34.3651 42.5025L33.371 44.8709H35.3592Z" fill="#009F57"/>
<path d="M39.1726 41.4269C39.1726 40.9869 39.5203 40.6392 39.9603 40.6392C40.4003 40.6392 40.748 40.9869 40.748 41.4269V43.5401H43.6597V41.4269C43.6597 40.9869 44.0074 40.6392 44.4474 40.6392C44.8874 40.6392 45.2351 40.9869 45.2351 41.4269V47.1526C45.2351 47.5926 44.8874 47.9403 44.4474 47.9403C44.0074 47.9403 43.6597 47.5926 43.6597 47.1526V44.9959H40.748V47.1526C40.748 47.5926 40.4003 47.9403 39.9603 47.9403C39.5203 47.9403 39.1726 47.5926 39.1726 47.1526V41.4269Z" fill="#009F57"/>
<path d="M49.7275 44.3115V44.2897C49.7275 42.2472 51.3192 40.574 53.4921 40.574C54.5786 40.574 55.2957 40.8185 55.9421 41.2694C56.0942 41.3835 56.2681 41.5953 56.2681 41.905C56.2681 42.3341 55.9204 42.6818 55.4858 42.6818C55.2576 42.6818 55.1164 42.6003 55.0023 42.5188C54.5732 42.2092 54.1114 42.0245 53.4324 42.0245C52.2862 42.0245 51.3735 43.0403 51.3735 44.2626V44.2843C51.3735 45.5989 52.2753 46.5605 53.5465 46.5605C54.1223 46.5605 54.6329 46.4192 55.0349 46.1313V45.1046H53.9702C53.5899 45.1046 53.2803 44.8058 53.2803 44.4255C53.2803 44.0453 53.5899 43.7356 53.9702 43.7356H55.7737C56.2137 43.7356 56.5614 44.0833 56.5614 44.5233V46.2671C56.5614 46.7289 56.3876 47.0494 56.0073 47.2721C55.4206 47.6306 54.5732 47.9892 53.4921 47.9892C51.2649 48 49.7275 46.4301 49.7275 44.3115Z" fill="#009F57"/>
<path d="M58.0823 41.4867C58.0823 41.0466 58.4299 40.699 58.87 40.699H61.3634C62.276 40.699 62.9822 40.9543 63.4548 41.4269C63.8568 41.8289 64.0687 42.3884 64.0687 43.0675V43.0892C64.0687 44.2191 63.5037 44.9145 62.6346 45.273L63.7319 46.6039C63.884 46.7995 63.9872 46.9624 63.9872 47.2069C63.9872 47.6469 63.6178 47.9348 63.2375 47.9348C62.879 47.9348 62.64 47.761 62.4553 47.5274L60.9179 45.5772H59.6576V47.1471C59.6576 47.5872 59.31 47.9348 58.87 47.9348C58.4299 47.9348 58.0823 47.5872 58.0823 47.1471V41.4867ZM61.2656 44.1865C62.037 44.1865 62.477 43.7791 62.477 43.1707V43.149C62.477 42.4699 62.0044 42.1222 61.2385 42.1222H59.6685V44.1811H61.2656V44.1865Z" fill="#009F57"/>
<path d="M65.4976 47.0874V41.4867C65.4976 41.0466 65.8452 40.699 66.2852 40.699H70.2671C70.6583 40.699 70.9733 41.0195 70.9733 41.4052C70.9733 41.7963 70.6528 42.1005 70.2671 42.1005H67.0675V43.5564H69.8054C70.1965 43.5564 70.5116 43.8769 70.5116 44.2626C70.5116 44.6537 70.1911 44.9579 69.8054 44.9579H67.0675V46.4681H70.3215C70.7126 46.4681 71.0277 46.7886 71.0277 47.1743C71.0277 47.5654 70.7072 47.8696 70.3215 47.8696H66.2907C65.8452 47.8805 65.4976 47.5274 65.4976 47.0874Z" fill="#009F57"/>
<path d="M72.3691 47.0874V41.4867C72.3691 41.0466 72.7168 40.699 73.1568 40.699H77.1387C77.5299 40.699 77.8449 41.0195 77.8449 41.4052C77.8449 41.7963 77.5244 42.1005 77.1387 42.1005H73.9391V43.5564H76.677C77.0681 43.5564 77.3832 43.8769 77.3832 44.2626C77.3832 44.6537 77.0681 44.9579 76.677 44.9579H73.9391V46.4681H77.193C77.5842 46.4681 77.8992 46.7886 77.8992 47.1743C77.8992 47.5654 77.5842 47.8696 77.193 47.8696H73.1623C72.7168 47.8805 72.3691 47.5274 72.3691 47.0874Z" fill="#009F57"/>
<path d="M79.2415 41.4486C79.2415 41.0086 79.5892 40.661 80.0292 40.661H80.1922C80.5724 40.661 80.7952 40.8456 81.0124 41.1227L84.06 45.1209V41.416C84.06 40.9869 84.4077 40.6392 84.8368 40.6392C85.266 40.6392 85.6191 40.9869 85.6191 41.416V47.1308C85.6191 47.5709 85.2714 47.9185 84.8314 47.9185H84.7771C84.3968 47.9185 84.1741 47.7338 83.9568 47.4568L80.7952 43.3119V47.158C80.7952 47.5872 80.4475 47.9348 80.0183 47.9348C79.5892 47.9348 79.2361 47.5872 79.2361 47.158V41.4486H79.2415Z" fill="#009F57"/>
<path d="M90.4863 41.4269C90.4863 40.9869 90.834 40.6392 91.274 40.6392C91.714 40.6392 92.0617 40.9869 92.0617 41.4269V47.1526C92.0617 47.5926 91.714 47.9403 91.274 47.9403C90.834 47.9403 90.4863 47.5926 90.4863 47.1526V41.4269Z" fill="#009F57"/>
<path d="M93.8599 41.4486C93.8599 41.0086 94.2075 40.661 94.6475 40.661H94.8105C95.1908 40.661 95.4135 40.8456 95.6308 41.1227L98.6783 45.1209V41.416C98.6783 40.9869 99.026 40.6392 99.4551 40.6392C99.8843 40.6392 100.237 40.9869 100.237 41.416V47.1308C100.237 47.5709 99.8897 47.9185 99.4497 47.9185H99.3954C99.0151 47.9185 98.7924 47.7338 98.5751 47.4568L95.4189 43.3119V47.158C95.4189 47.5872 95.0713 47.9348 94.6367 47.9348C94.2075 47.9348 93.8599 47.5872 93.8599 47.158V41.4486Z" fill="#009F57"/>
<path d="M102.035 41.4269C102.035 40.9869 102.383 40.6392 102.823 40.6392C103.263 40.6392 103.611 40.9869 103.611 41.4269V47.1526C103.611 47.5926 103.263 47.9403 102.823 47.9403C102.383 47.9403 102.035 47.5926 102.035 47.1526V41.4269Z" fill="#009F57"/>
<path d="M107.082 42.1548H105.567C105.165 42.1548 104.839 41.8289 104.839 41.4269C104.839 41.0249 105.165 40.699 105.567 40.699H110.184C110.586 40.699 110.912 41.0249 110.912 41.4269C110.912 41.8289 110.586 42.1548 110.184 42.1548H108.668V47.1526C108.668 47.5926 108.321 47.9403 107.881 47.9403C107.441 47.9403 107.093 47.5926 107.093 47.1526V42.1548H107.082Z" fill="#009F57"/>
<path d="M112.123 41.4269C112.123 40.9869 112.471 40.6392 112.911 40.6392C113.351 40.6392 113.699 40.9869 113.699 41.4269V47.1526C113.699 47.5926 113.351 47.9403 112.911 47.9403C112.471 47.9403 112.123 47.5926 112.123 47.1526V41.4269Z" fill="#009F57"/>
<path d="M115.1 46.8646L117.605 41.215C117.778 40.8239 118.099 40.5903 118.528 40.5903H118.62C119.05 40.5903 119.359 40.8239 119.533 41.215L122.037 46.8646C122.086 46.9787 122.119 47.0819 122.119 47.1851C122.119 47.6034 121.793 47.9456 121.369 47.9456C121 47.9456 120.755 47.7283 120.609 47.4024L120.125 46.2725H116.964L116.458 47.4513C116.322 47.7609 116.056 47.9456 115.73 47.9456C115.323 47.9456 115.002 47.6197 115.002 47.2068C115.008 47.0873 115.046 46.9733 115.1 46.8646ZM119.538 44.8709L118.544 42.5025L117.55 44.8709H119.538Z" fill="#009F57"/>
<path d="M124.259 42.1548H122.744C122.342 42.1548 122.016 41.8289 122.016 41.4269C122.016 41.0249 122.342 40.699 122.744 40.699H127.361C127.763 40.699 128.089 41.0249 128.089 41.4269C128.089 41.8289 127.763 42.1548 127.361 42.1548H125.845V47.1526C125.845 47.5926 125.498 47.9403 125.058 47.9403C124.618 47.9403 124.27 47.5926 124.27 47.1526V42.1548H124.259Z" fill="#009F57"/>
<path d="M129.3 41.4269C129.3 40.9869 129.648 40.6392 130.088 40.6392C130.528 40.6392 130.876 40.9869 130.876 41.4269V47.1526C130.876 47.5926 130.528 47.9403 130.088 47.9403C129.648 47.9403 129.3 47.5926 129.3 47.1526V41.4269Z" fill="#009F57"/>
<path d="M134.591 47.3644L132.261 41.7963C132.212 41.6714 132.168 41.5519 132.168 41.416C132.168 40.976 132.516 40.6392 132.956 40.6392C133.369 40.6392 133.635 40.8728 133.754 41.1933L135.547 45.838L137.362 41.139C137.465 40.8837 137.742 40.6338 138.122 40.6338C138.551 40.6338 138.904 40.9597 138.904 41.3943C138.904 41.5193 138.861 41.6496 138.823 41.742L136.476 47.3644C136.313 47.7556 136.014 47.9891 135.585 47.9891H135.482C135.053 47.9891 134.759 47.7556 134.591 47.3644Z" fill="#009F57"/>
<path d="M140.122 47.0874V41.4867C140.122 41.0466 140.469 40.699 140.909 40.699H144.891C145.282 40.699 145.597 41.0195 145.597 41.4052C145.597 41.7963 145.277 42.1005 144.891 42.1005H141.692V43.5564H144.429C144.821 43.5564 145.136 43.8769 145.136 44.2626C145.136 44.6537 144.821 44.9579 144.429 44.9579H141.692V46.4681H144.945C145.337 46.4681 145.652 46.7886 145.652 47.1743C145.652 47.5654 145.337 47.8696 144.945 47.8696H140.915C140.469 47.8805 140.122 47.5274 140.122 47.0874Z" fill="#009F57"/>
</svg>