<svg xmlns="http://www.w3.org/2000/svg" width="128" height="128" viewBox="0 0 128 128" fill="none">
<path d="M24 58.6667C28.4183 58.6667 32 55.085 32 50.6667C32 46.2485 28.4183 42.6667 24 42.6667C19.5817 42.6667 16 46.2485 16 50.6667C16 55.085 19.5817 58.6667 24 58.6667Z" fill="white"/>
<path d="M118.24 48.9066C118.24 28.2666 101.547 11.5732 80.9068 11.5732C60.2668 11.5732 43.5734 28.2666 43.5734 48.9066C43.5734 67.4132 57.0134 82.7199 74.6667 85.6532V106.667H32.0001V90.6666H37.3334V69.3332C37.3334 66.3999 34.9334 63.9999 32.0001 63.9999H16.0001C13.0667 63.9999 10.6667 66.3999 10.6667 69.3332V90.6666H16.0001V117.333H101.333V106.667H85.3334V85.9733C103.84 83.7866 118.24 68.0532 118.24 48.9066ZM80.9068 75.5732C66.1867 75.5732 54.2401 63.6266 54.2401 48.9066C54.2401 34.1866 66.1867 22.2399 80.9068 22.2399C95.6267 22.2399 107.573 34.1866 107.573 48.9066C107.573 63.6266 95.6267 75.5732 80.9068 75.5732Z" fill="white"/>
</svg>