<svg xmlns="http://www.w3.org/2000/svg" width="112" height="112" viewBox="0 0 112 112" fill="none">
<path d="M89.6 0C85.1697 0 80.8389 1.31374 77.1552 3.77508C73.4716 6.23642 70.6005 9.73483 68.9051 13.8279C67.2097 17.921 66.7661 22.4248 67.6304 26.77C68.4947 31.1152 70.6281 35.1065 73.7608 38.2392C76.8935 41.3719 80.8848 43.5053 85.23 44.3696C89.5751 45.2339 94.079 44.7903 98.1721 43.0949C102.265 41.3995 105.764 38.5284 108.225 34.8448C110.686 31.1611 112 26.8303 112 22.4C112 16.4592 109.64 10.7616 105.439 6.56081C101.238 2.35999 95.5408 0 89.6 0ZM89.6 33.6C87.3848 33.6 85.2194 32.9431 83.3776 31.7125C81.5358 30.4818 80.1003 28.7326 79.2525 26.6861C78.4048 24.6395 78.183 22.3876 78.6152 20.215C79.0474 18.0424 80.1141 16.0468 81.6804 14.4804C83.2467 12.9141 85.2424 11.8474 87.415 11.4152C89.5876 10.983 91.8395 11.2048 93.8861 12.0525C95.9326 12.9002 97.6818 14.3358 98.9125 16.1776C100.143 18.0194 100.8 20.1848 100.8 22.4C100.8 25.3704 99.62 28.2192 97.5196 30.3196C95.4192 32.42 92.5704 33.6 89.6 33.6ZM72.8 100.8H61.6V89.6C61.6 88.1148 61.01 86.6904 59.9598 85.6402C58.9096 84.59 57.4852 84 56 84C54.5148 84 53.0904 84.59 52.0402 85.6402C50.99 86.6904 50.4 88.1148 50.4 89.6V100.8H39.2V81.872L58.52 72.184C59.4435 71.7186 60.2201 71.0066 60.7638 70.1269C61.3074 69.2472 61.5969 68.2341 61.6 67.2V44.8C61.6 43.3148 61.01 41.8904 59.9598 40.8402C58.9096 39.79 57.4852 39.2 56 39.2C54.5148 39.2 53.0904 39.79 52.0402 40.8402C50.99 41.8904 50.4 43.3148 50.4 44.8V63.728L39.2 69.328V33.6C39.2 32.1148 38.61 30.6904 37.5598 29.6402C36.5096 28.59 35.0852 28 33.6 28C32.1148 28 30.6904 28.59 29.6402 29.6402C28.59 30.6904 28 32.1148 28 33.6V80.528L16.8 74.928V61.6C16.8 60.1148 16.21 58.6904 15.1598 57.6402C14.1096 56.59 12.6852 56 11.2 56C9.71479 56 8.29041 56.59 7.2402 57.6402C6.19 58.6904 5.6 60.1148 5.6 61.6V78.4C5.60313 79.4341 5.89257 80.4472 6.43621 81.3269C6.97985 82.2066 7.75648 82.9186 8.68 83.384L28 93.072V100.8H5.6C4.11479 100.8 2.69041 101.39 1.6402 102.44C0.589998 103.49 0 104.915 0 106.4C0 107.885 0.589998 109.31 1.6402 110.36C2.69041 111.41 4.11479 112 5.6 112H72.8C74.2852 112 75.7096 111.41 76.7598 110.36C77.81 109.31 78.4 107.885 78.4 106.4C78.4 104.915 77.81 103.49 76.7598 102.44C75.7096 101.39 74.2852 100.8 72.8 100.8Z" fill="white"/>
</svg>