<svg xmlns="http://www.w3.org/2000/svg" width="128" height="128" viewBox="0 0 128 128" fill="none">
<path d="M58.6665 71.9999V10.6666L15.9998 71.9999H58.6665ZM47.9998 61.3332H36.4265L47.9998 44.6932V61.3332ZM112 71.9999C112 34.6666 77.3332 5.33325 66.6665 5.33325C66.6665 5.33325 71.9998 21.3333 71.9998 39.9999C71.9998 58.6666 66.6665 71.9999 66.6665 71.9999H112ZM82.0265 27.9466C89.5998 36.0532 97.3865 47.7866 100.213 61.3332H80.5865C81.7065 55.4666 82.6665 48.2132 82.6665 39.9999C82.6665 35.7866 82.3998 31.7332 82.0265 27.9466ZM117.333 79.9999H10.6665C12.3198 88.1599 16.8532 95.1466 23.0932 99.8932C26.5598 98.4532 29.5998 96.0532 31.9998 93.3332C35.8932 97.8132 41.5998 101.333 47.9998 101.333C54.3998 101.333 60.1065 97.8132 63.9998 93.3332C67.8932 97.8132 73.5998 101.333 79.9998 101.333C86.3998 101.333 92.0532 97.8132 95.9998 93.3332C98.3998 96.0532 101.44 98.4532 104.907 99.8932C111.147 95.1466 115.68 88.1599 117.333 79.9999ZM117.333 122.667V112H112C106.453 112 100.907 110.133 95.9998 106.667C86.2398 113.6 73.7598 113.6 63.9998 106.667C54.2398 113.6 41.7598 113.6 31.9998 106.667C27.1465 110.133 21.5465 112 15.9998 112H10.6665V122.667H15.9998C21.4932 122.667 26.9332 121.333 31.9998 118.667C42.0798 124 53.9198 124 63.9998 118.667C74.0798 124 85.9198 124 95.9998 118.667C101.067 121.333 106.507 122.667 112 122.667H117.333Z" fill="white"/>
</svg>